PathFileType	4	(X/Y/Z)	Patient4_TMGait_0pt6_01_left_43.trc.trc
DataRate	CameraRate	NumFrames	NumMarkers	Units	OrigDataRate	OrigDataStartFrame	OrigNumFrames
81.395348837209	81.395348837209	6	33	mm	81.395348837209	89	       141
Frame#	Time	Sacral			L.Shoulder			Chest			R.Shoulder			Neck			R.ASIS			L.ASIS			R.Thigh.Superior			R.Thigh.Lateral			R.Thigh.Inferior			R.Patella			L.Thigh.Superior			L.Thigh.Lateral			L.Thigh.Inferior			L.Patella			L.Shank.Superior			L.Shank.Lateral			L.Shank.Inferior			R.Shank.Superior			R.Shank.Lateral			R.Shank.Inferior			R.Heel			R.Midfoot.Superior			R.Midfoot.Lateral			R.Toe			L.Heel			L.Midfoot.Lateral			L.Midfoot.Superior			L.Toe			L.Elbow			L.Wrist			R.Elbow			R.Wrist			
		X1	Y1	Z1	X2	Y2	Z2	X3	Y3	Z3	X4	Y4	Z4	X5	Y5	Z5	X6	Y6	Z6	X7	Y7	Z7	X8	Y8	Z8	X9	Y9	Z9	X10	Y10	Z10	X11	Y11	Z11	X12	Y12	Z12	X13	Y13	Z13	X14	Y14	Z14	X15	Y15	Z15	X16	Y16	Z16	X17	Y17	Z17	X18	Y18	Z18	X19	Y19	Z19	X20	Y20	Z20	X21	Y21	Z21	X22	Y22	Z22	X23	Y23	Z23	X24	Y24	Z24	X25	Y25	Z25	X26	Y26	Z26	X27	Y27	Z27	X28	Y28	Z28	X29	Y29	Z29	X30	Y30	Z30	X31	Y31	Z31	X32	Y32	Z32	X33	Y33	Z33	

89	53.351142857143	820.482527440167	1004.072186420420	465.662524573419	1004.200369015197	1430.586919445022	287.010321243356	1097.382982866352	1366.250648343718	454.852635963766	1000.582402695566	1440.022345080664	620.710851642715	972.301063431404	1492.013613998591	438.701338684451	1039.618543068378	946.324308578089	599.166970499931	1045.306244113294	954.538429068069	325.094961510010	1098.019044855732	749.474821642347	570.933565001041	1022.151376875977	634.958153636719	624.801778390899	1105.168216392349	589.161813803312	546.021714681742	1112.693509005242	500.390540255229	550.775688381792	1085.907718718370	736.707827221101	356.222991433556	1007.970809598191	621.813972008409	282.142553196233	1093.251681316719	538.233144534199	345.474053503722	1085.497799270065	450.964572543400	341.241413387215	1012.757182669394	395.932059098863	332.497170017790	870.989659733092	363.879087849659	280.565520663370	845.751163541885	236.803229143242	334.930972979369	1090.050329107499	410.441429812196	554.315671056584	1024.451014912778	301.907255279836	613.186034043009	1070.926361679496	210.617571320638	548.369109827290	942.876304903340	43.937491715733	517.779133761557	1115.468438840680	97.974219824962	549.251325686039	1027.915041998685	37.662117184255	589.953978790426	1236.111583083370	41.365249587418	573.985156311821	650.100791588191	193.042696668781	368.587628053017	702.574950336493	135.929432823695	293.086815271552	806.554768844424	132.614108969176	315.982175707949	871.495029079797	28.807009482203	298.706851119422	1001.570514163134	1070.110856971457	186.704465065736	1185.119844783328	886.192483386581	213.007242814588	916.291688627196	1102.680934151109	736.986459820290	999.151106049913	855.458237323684	750.929578833330	
90	53.363428571429	819.952664517910	1004.447964364085	468.767928078188	1002.770240587711	1430.270625380919	288.336355875453	1096.747840488547	1366.769916349038	456.060420570501	1000.555431638426	1440.866503576473	622.060241106567	971.416903965284	1492.253686029397	439.957136452524	1039.492588271652	946.668391903435	601.597150104838	1044.133277077483	954.771071511816	327.762019356550	1096.251497168290	748.678927930058	573.983147606073	1018.834937528032	634.668157328199	626.900861171442	1101.807118044992	588.423574314089	548.319038273141	1108.328745044317	499.579960851175	552.414100084283	1089.695949780955	739.670486954624	359.327612775598	1016.372054871628	623.368531949289	283.684835642404	1103.339797138042	541.592791328425	347.988258628104	1097.160009013303	453.407242504409	343.163418716926	1023.318204127541	398.282111358332	333.811016399282	881.012938111590	370.151225509097	280.709749549881	852.322393383412	243.437188646179	334.410046023302	1085.142939254789	409.820426826214	555.676852774539	1018.786586218548	301.560122000934	614.143960905930	1064.562192588245	210.224612546658	548.915327491275	935.532071222653	43.868370356281	517.866217921863	1108.122013071672	97.890086035741	549.479971199729	1020.526533005865	37.592553099563	590.098712477096	1228.735456761212	41.244482231459	574.204635122214	655.681606339831	208.227416751790	366.093276850220	706.082566681241	148.032955111550	291.237812963707	809.846857255684	138.855718930102	315.294567800217	868.414880891155	28.226031864239	298.732945367382	1001.073872725302	1069.286878584605	189.844656190070	1175.250731230662	875.581948038693	213.514075624307	919.800809350817	1103.140862113468	740.625644325256	1015.214012684311	860.538384800660	752.289932325176	
91	53.375714285714	819.200667169531	1004.786415774160	471.725141596447	1001.177197468421	1429.811001487071	289.571877328716	1096.034329307583	1367.126675040359	457.136805375206	1000.547469282513	1441.553918655318	623.360523443052	970.508923547741	1492.397834840467	441.095195967203	1039.167983496853	946.840635735752	603.868990841462	1042.626831942139	954.880802404004	330.269495779292	1094.267654689076	747.816823707847	576.845381917792	1015.467994864416	634.356305903970	628.872121338977	1098.366625049232	587.669277866797	550.483491125476	1103.901653441376	498.764464490033	553.974332371744	1093.139094338757	742.791865064043	362.309719740086	1024.389902367549	625.286287025034	285.254924898964	1112.839078827715	545.368465081561	350.656926573520	1108.375523811401	456.351335083285	345.343125808179	1033.644976312707	401.010126047864	335.324629717637	891.043927474115	376.168677703512	280.960586073684	859.356846134869	249.839699701298	334.115808014871	1080.176107394482	409.175656660520	556.958820261444	1013.044735855921	301.207782764616	615.032221444577	1058.140063069908	209.813228817627	549.419186244588	928.106574853270	43.806775752246	517.940408461356	1100.716763565085	97.766190127170	549.664099066328	1013.064357017803	37.520955766408	590.216004850435	1221.294865430095	41.061948949755	574.364757941076	662.079075462831	221.727775200000	363.866995323510	710.805221123278	159.183191706992	289.517148962801	814.187729339265	145.155119089868	314.682356204868	867.271582735339	28.271953063450	298.483814360833	1000.206867620429	1068.348049077483	192.659161358722	1164.602235357273	865.608217339313	213.671388985587	923.402223867506	1103.538857670056	744.273933599523	1031.117196031196	866.184799828216	753.538767736401	
92	53.388000000000	818.222412645805	1005.135296877754	474.508377143238	999.481307605638	1429.292289120448	290.725931556833	1095.256357637518	1367.346521856051	458.090877187320	1000.573108321398	1442.129998158869	624.606025114564	969.599079525718	1492.501598439746	442.116805835017	1038.625157189743	946.910610684108	605.986492750071	1040.817119444347	954.923618339763	332.590361420712	1092.066474671306	746.952263736960	579.466956900319	1012.047402361364	634.074306814695	630.705693903437	1094.822524588780	586.924519658043	552.497243076050	1099.376341839753	497.980750227431	555.444584316467	1096.177242392302	746.095623439188	365.156837807748	1031.956530532941	627.593322024595	286.825760541300	1121.711203828050	549.571941685100	353.380598135540	1119.103052877708	459.814360750396	347.639084475419	1043.718104306438	404.110667494304	336.932498095250	900.988111409518	381.811618791532	281.346471919993	866.927245467578	255.801872508631	334.038624201707	1075.126860071694	408.548843812856	558.154631462590	1007.221737817598	300.888499469095	615.853058653151	1051.670803773428	209.418516614902	549.892741710406	920.630308807811	43.767604765111	518.016546620742	1093.281951063555	97.628510894519	549.821746562573	1005.561542329810	37.459471752356	590.316128486296	1213.818879774707	40.844728988897	574.484418458991	669.267337266894	232.982177095622	362.077334957223	716.801615739963	168.897271334560	288.026011875718	819.766946621836	151.228579554364	314.126860967720	868.570509772515	29.030637277379	297.883950904733	998.814865529195	1067.385272249896	195.172681992316	1153.194551858087	856.453341563228	213.501191982151	927.208818121636	1103.883437324314	747.880743401950	1046.804321481215	872.336251004368	754.648554269869	
93	53.400285714286	817.022844366492	1005.539133269817	477.111615908667	997.733590962364	1428.799474003394	291.808707175686	1094.424254325807	1367.464297422501	458.931736522985	1000.641653920743	1442.643608658595	625.790102900389	968.701464824175	1492.618040324561	443.031028679946	1037.857060026351	946.943396484689	607.947674058914	1038.744823434000	954.966706110328	334.701557054041	1089.644034913761	746.129853318414	581.814789365915	1008.532901393848	633.859350816872	632.389172078908	1091.122651949597	586.203331997110	554.345014380624	1094.689745363921	497.256403675208	556.801720358323	1098.760811889312	749.605121606737	367.852044211571	1039.012325782677	630.305581559699	288.353992112178	1129.940990420259	554.210590431253	356.033278895571	1129.323154137402	463.814675807821	349.890520937905	1053.552062946046	407.568088935990	338.511558813868	910.790339942214	386.953450036640	281.875170511103	875.147322028373	261.109863726911	334.151164624985	1069.944784970901	407.975002005248	559.252717888832	1001.289749163920	300.629942521290	616.602638757936	1045.148715002767	209.068644129117	550.342838915982	913.128647971869	43.756961156824	518.102512099569	1085.839581031270	97.498172904740	549.967044272658	998.044087605652	37.415591640001	590.406639221288	1206.330027526608	40.620570582649	574.581554290186	677.279578810028	241.519523726930	360.861356360717	724.153328471281	176.745523926282	286.847411678593	826.787946879075	156.770380274518	313.610408828143	872.767387411978	30.478591439694	296.878526162118	996.770028246246	1066.496505531409	197.410267254152	1141.081649383030	848.268137262918	213.037884691472	931.308308865627	1104.194412324725	751.395684657049	1062.245784941629	878.941259356568	755.578326187685	
94	53.412571428571	815.616415230417	1006.034165004581	479.545693811559	995.968695164202	1428.407385643405	292.831665957152	1093.545337173830	1367.517920855518	459.667128719055	1000.760565104842	1443.136955881779	626.908448771698	967.823171549799	1492.790013004707	443.856504033685	1036.869026642716	946.989133273279	609.741436090331	1036.451165560848	955.078967423957	336.584727606768	1086.996759636121	745.374640141285	583.866856309620	1004.865612686201	633.733804673973	633.907730522822	1087.197744540467	585.509897358550	556.008638414877	1089.765784946708	496.609349444274	558.016119414102	1100.853532680729	753.337226511838	370.371228203765	1045.498904239842	633.421404019370	289.787260499003	1137.525065109204	559.279594990956	358.477206395358	1139.025529858916	468.362657018314	351.938450214127	1063.179063971740	411.353731420339	339.939949680572	920.433246739623	391.461696432014	282.530881611048	884.153108160847	265.559818039875	334.412125377791	1064.564370356535	407.479639516249	560.238100461001	995.207207299238	300.447474928261	617.272864123690	1038.555931229260	208.782355874336	550.770138508625	905.619930620515	43.772754534487	518.199519445644	1078.402843361671	97.389696286766	550.108769535323	990.529221976612	37.391993762589	590.491986988403	1198.843087439689	40.413850347108	574.671134876102	686.207666281627	246.993630417900	360.299611215748	732.963478246974	182.381203152158	286.033236568137	835.446701484803	161.478626077471	313.119651701936	880.211996446836	32.474201455214	295.449776520617	993.986224615017	1065.772642046705	199.393204860607	1128.357438787210	841.161807924317	212.324569475813	935.755853900974	1104.495362550706	754.772835716460	1077.433371843314	885.962613418779	756.274708257843	
